<?xml version="1.0" standalone="no"?>
<!DOCTYPE svg PUBLIC "-//W3C//DTD SVG 20010904//EN"
 "http://www.w3.org/TR/2001/REC-SVG-20010904/DTD/svg10.dtd">
<svg version="1.0" xmlns="http://www.w3.org/2000/svg"
 width="225.000000pt" height="225.000000pt" viewBox="0 0 225.000000 225.000000"
 preserveAspectRatio="xMidYMid meet">

<g transform="translate(0.000000,225.000000) scale(0.100000,-0.100000)"
fill="#000000" stroke="none">
<path d="M1043 1683 c-28 -4 -33 -8 -33 -31 0 -37 11 -72 21 -72 5 0 9 8 9 19
0 10 10 22 23 26 21 8 21 8 -5 12 -35 5 -36 21 -3 29 14 3 25 10 25 15 0 5 -1
8 -2 7 -2 0 -18 -3 -35 -5z"/>
<path d="M1140 1682 c-21 -7 -30 -23 -30 -53 0 -56 76 -69 94 -16 15 43 -22
83 -64 69z m40 -31 c13 -25 13 -27 -6 -46 -12 -12 -19 -13 -30 -4 -17 14 -18
56 -1 62 21 9 26 7 37 -12z"/>
<path d="M1236 1622 c-10 -27 -12 -50 -7 -55 5 -5 12 0 16 13 8 26 29 21 33
-7 2 -12 10 -24 18 -27 12 -5 14 -1 9 15 -4 13 -1 27 10 39 23 26 14 44 -28
57 l-36 11 -15 -46z m64 2 c0 -9 -7 -14 -17 -12 -25 5 -28 28 -4 28 12 0 21
-6 21 -16z"/>
<path d="M868 1644 c-5 -4 -8 -16 -8 -26 0 -19 -15 -24 -25 -8 -3 6 -14 10
-23 10 -11 0 -5 -10 19 -32 20 -18 38 -40 41 -48 11 -31 16 -3 10 53 -4 33
-10 55 -14 51z"/>
<path d="M725 1560 c-25 -28 -10 -71 28 -84 23 -8 31 -6 48 11 24 24 18 66 -9
61 -21 -4 -28 -28 -7 -28 14 0 15 -3 5 -15 -17 -21 -37 -19 -50 4 -13 26 -3
51 21 51 10 0 19 5 19 10 0 18 -36 11 -55 -10z"/>
<path d="M1450 1565 c10 -12 8 -21 -14 -49 -14 -19 -22 -37 -17 -41 5 -3 19 8
31 25 16 22 27 29 41 25 28 -9 23 8 -11 33 -34 25 -48 29 -30 7z"/>
<path d="M1030 1530 c0 -6 19 -7 48 -3 64 8 66 13 4 13 -29 0 -52 -4 -52 -10z"/>
<path d="M1145 1529 c4 -5 22 -9 42 -9 45 0 40 5 -10 13 -22 3 -35 2 -32 -4z"/>
<path d="M968 1523 c-10 -2 -18 -9 -18 -14 0 -6 7 -6 18 -1 9 5 24 12 32 15
13 5 13 5 0 5 -8 0 -23 -2 -32 -5z"/>
<path d="M1279 1495 c30 -14 61 -31 70 -38 12 -10 13 -9 7 1 -9 14 -69 46
-106 56 -14 3 -1 -5 29 -19z"/>
<path d="M883 1490 c-24 -11 -43 -25 -43 -32 0 -10 2 -10 9 0 4 8 11 13 15 13
8 -2 66 28 66 34 0 6 3 7 -47 -15z"/>
<path d="M1495 1470 c-25 -25 -33 -40 -24 -40 8 0 20 5 27 12 8 8 15 8 27 -2
14 -12 14 -15 -1 -31 -33 -36 -4 -32 33 4 34 35 41 64 8 37 -24 -20 -44 3 -27
30 22 36 -5 29 -43 -10z"/>
<path d="M637 1482 c-33 -36 -8 -92 39 -92 46 0 62 67 22 94 -29 21 -41 20
-61 -2z m47 -15 c23 -17 17 -52 -8 -52 -23 0 -41 27 -33 49 8 19 17 20 41 3z"/>
<path d="M1059 1473 c-13 -16 -12 -17 4 -4 9 7 17 15 17 17 0 8 -8 3 -21 -13z"/>
<path d="M811 1446 c-50 -40 -122 -123 -145 -168 -21 -40 -23 -47 -7 -28 11
14 21 31 21 38 0 7 34 47 75 89 68 69 92 99 56 69z"/>
<path d="M1370 1453 c0 -7 12 -21 28 -30 32 -22 82 -70 82 -82 0 -4 9 -16 20
-26 11 -10 20 -24 20 -32 0 -7 5 -13 11 -13 5 0 2 14 -8 31 -24 42 -102 129
-115 129 -6 0 -17 8 -24 18 -8 10 -13 12 -14 5z"/>
<path d="M1120 1436 c0 -2 7 -7 16 -10 8 -3 12 -2 9 4 -6 10 -25 14 -25 6z"/>
<path d="M1049 1413 c-13 -16 -12 -17 4 -4 9 7 17 15 17 17 0 8 -8 3 -21 -13z"/>
<path d="M1166 1403 c-6 -14 -5 -15 5 -6 7 7 10 15 7 18 -3 3 -9 -2 -12 -12z"/>
<path d="M1567 1384 l-38 -25 21 -29 c26 -36 49 -40 26 -5 -20 30 -20 35 -1
35 7 0 18 -8 24 -17 5 -10 13 -15 17 -11 4 4 1 15 -6 23 -9 11 -10 19 -3 26 8
8 14 5 22 -10 7 -12 16 -21 22 -21 6 0 2 14 -8 30 -21 36 -27 36 -76 4z"/>
<path d="M1026 1375 c-9 -26 -7 -32 5 -12 6 10 9 21 6 23 -2 3 -7 -2 -11 -11z"/>
<path d="M546 1363 c-3 -3 13 -19 36 -35 l43 -28 22 27 c12 15 19 31 16 36 -3
5 -14 -1 -23 -13 l-17 -23 -35 21 c-19 12 -38 19 -42 15z"/>
<path d="M1161 1354 c0 -11 3 -14 6 -6 3 7 2 16 -1 19 -3 4 -6 -2 -5 -13z"/>
<path d="M1310 1348 c0 -16 3 -19 8 -10 6 9 15 10 33 3 13 -5 18 -10 11 -10
-23 -1 19 -36 44 -36 18 -1 21 3 14 15 -10 18 -40 46 -40 37 0 -3 -16 1 -35 9
-34 14 -35 14 -35 -8z m90 -42 c-8 -8 -13 -7 -20 4 -12 20 -1 33 16 19 11 -9
12 -15 4 -23z"/>
<path d="M950 1356 c0 -2 9 -6 20 -9 11 -3 18 -1 14 4 -5 9 -34 13 -34 5z"/>
<path d="M792 1330 c0 -14 2 -19 5 -12 2 6 2 18 0 25 -3 6 -5 1 -5 -13z"/>
<path d="M1272 1304 c-1 -25 2 -44 8 -44 11 0 14 76 3 83 -5 3 -9 -15 -11 -39z"/>
<path d="M975 1320 c-3 -6 1 -7 9 -4 18 7 21 14 7 14 -6 0 -13 -4 -16 -10z"/>
<path d="M516 1291 c-24 -27 -17 -63 16 -79 35 -16 65 -2 74 34 12 48 -57 82
-90 45z m71 -28 c3 -8 -1 -21 -9 -30 -20 -19 -58 -2 -58 27 0 31 55 34 67 3z"/>
<path d="M1318 1303 c6 -2 18 -2 25 0 6 3 1 5 -13 5 -14 0 -19 -2 -12 -5z"/>
<path d="M894 1292 c4 -3 14 -7 22 -8 9 -1 13 0 10 4 -4 3 -14 7 -22 8 -9 1
-13 0 -10 -4z"/>
<path d="M855 1273 c2 -10 4 -22 4 -27 1 -6 5 -6 11 0 11 11 3 44 -10 44 -5 0
-7 -8 -5 -17z"/>
<path d="M1319 1283 c0 -5 -2 -17 -4 -27 -4 -22 14 -51 33 -51 6 0 11 -4 10
-10 -2 -5 -7 -9 -11 -7 -5 1 -6 -1 -3 -6 3 -5 30 -9 61 -10 44 0 55 3 55 17 0
14 2 14 10 1 8 -13 10 -13 10 1 0 17 -28 34 -38 24 -3 -3 0 -5 6 -5 27 0 -2
-26 -32 -28 -25 -2 -35 3 -45 22 -8 13 -19 22 -26 20 -16 -7 -26 19 -14 37 12
19 11 29 -1 29 -5 0 -10 -3 -11 -7z"/>
<path d="M1441 1286 c2 -2 15 -9 29 -15 24 -11 24 -11 6 3 -16 13 -49 24 -35
12z"/>
<path d="M897 1249 c-3 -11 -1 -19 5 -17 5 2 9 7 8 12 -1 5 4 13 12 17 10 7 9
9 -3 9 -9 0 -19 -9 -22 -21z"/>
<path d="M1070 1259 c-108 -45 -156 -156 -111 -255 19 -41 56 -84 74 -84 4 0
-7 15 -26 33 -33 31 -57 87 -57 134 0 80 97 173 182 173 57 0 134 -45 160 -95
42 -77 27 -150 -45 -220 -46 -44 -48 -47 -17 -29 66 38 107 127 91 197 -13 56
-54 111 -98 132 -46 22 -119 29 -153 14z"/>
<path d="M1455 1250 c3 -5 11 -10 16 -10 6 0 7 5 4 10 -3 6 -11 10 -16 10 -6
0 -7 -4 -4 -10z"/>
<path d="M805 1240 c-4 -6 1 -7 12 -4 16 5 15 3 -2 -12 -18 -15 -18 -16 -2
-10 10 3 23 6 29 6 6 0 6 6 -2 15 -14 17 -26 19 -35 5z"/>
<path d="M1540 1246 c0 -2 8 -21 17 -42 13 -29 17 -68 17 -154 0 -123 -13
-177 -60 -252 -28 -44 -32 -62 -6 -27 86 119 109 305 53 452 -9 23 -21 36 -21
23z"/>
<path d="M1682 1210 c-6 -11 -23 -22 -37 -26 -34 -9 -32 -24 4 -24 16 0 41 -4
55 -10 18 -6 26 -6 26 1 0 6 -9 13 -20 16 -20 5 -29 33 -10 33 6 0 10 7 10 15
0 21 -13 19 -28 -5z"/>
<path d="M626 1193 c-4 -16 -9 -39 -11 -53 -10 -49 -6 -173 6 -184 8 -8 10 -5
4 12 -10 33 -7 141 4 180 5 17 8 32 5 32 -3 0 0 9 6 20 6 12 7 20 1 20 -5 0
-12 -12 -15 -27z"/>
<path d="M900 1210 c-9 -6 -10 -10 -3 -10 6 0 15 5 18 10 8 12 4 12 -15 0z"/>
<path d="M728 1203 c6 -2 18 -2 25 0 6 3 1 5 -13 5 -14 0 -19 -2 -12 -5z"/>
<path d="M1110 1193 c-43 -14 -63 -31 -80 -71 -19 -42 -19 -92 0 -92 5 0 6 -9
3 -20 -3 -11 0 -26 6 -34 6 -8 13 -29 14 -47 5 -72 140 -145 183 -98 13 15 12
18 -10 33 -31 20 -35 20 -56 1 -15 -14 -21 -14 -52 -1 -39 17 -80 56 -43 42
38 -15 82 -18 89 -7 4 7 -1 11 -13 11 -12 0 -21 5 -21 10 0 6 4 10 9 10 13 0
20 49 7 53 -6 2 -11 19 -11 38 0 30 -3 34 -27 37 -23 3 -28 8 -28 30 -1 23 -2
25 -11 9 -5 -9 -8 -21 -5 -25 2 -4 0 -14 -5 -22 -7 -11 -8 0 -4 35 8 65 26 85
52 60 16 -17 18 -17 21 -2 4 17 32 24 32 8 0 -5 14 -12 30 -16 26 -6 30 -11
30 -41 0 -19 4 -34 9 -34 17 0 18 25 2 67 -20 55 -71 83 -121 66z m4 -162 c15
-23 -27 -62 -45 -44 -14 14 2 53 22 53 10 0 20 -4 23 -9z"/>
<path d="M480 1172 c0 -6 12 -12 28 -14 l27 -3 -32 -18 c-39 -21 -42 -32 -10
-41 35 -9 77 -7 77 4 0 6 -12 10 -27 11 -25 0 -26 1 -10 12 63 41 63 42 -5 52
-31 5 -48 4 -48 -3z"/>
<path d="M810 1173 c8 -3 19 -11 23 -17 6 -7 7 -6 4 4 -2 8 -12 16 -23 17 -13
2 -15 1 -4 -4z"/>
<path d="M857 1159 c7 -7 15 -10 18 -7 3 3 -2 9 -12 12 -14 6 -15 5 -6 -5z"/>
<path d="M1484 1129 c-3 -6 0 -15 7 -20 15 -9 -13 -14 -58 -10 -23 2 -31 -13
-13 -24 6 -3 10 0 10 7 0 10 3 9 10 -2 6 -9 5 -17 -3 -22 -8 -5 -4 -8 10 -8
16 0 20 5 16 20 -4 15 0 20 15 20 11 0 23 -6 25 -12 3 -7 6 4 6 25 1 36 -11
48 -25 26z"/>
<path d="M689 1113 c-13 -16 -12 -17 4 -4 9 7 17 15 17 17 0 8 -8 3 -21 -13z"/>
<path d="M1415 1120 l-20 -9 20 0 c11 0 29 4 40 9 l20 9 -20 0 c-11 0 -29 -4
-40 -9z"/>
<path d="M1376 1109 c4 -7 7 -24 8 -38 1 -17 8 -27 20 -29 11 -3 16 0 11 7 -3
6 -11 8 -17 5 -7 -4 -8 -2 -4 4 9 14 -3 62 -16 62 -5 0 -6 -5 -2 -11z"/>
<path d="M1642 1098 c-33 -33 -4 -88 46 -88 22 0 52 30 52 52 0 37 -70 64 -98
36z m68 -18 c12 -7 12 -13 4 -27 -15 -24 -52 -29 -60 -9 -14 37 20 59 56 36z"/>
<path d="M460 1051 c0 -5 10 -11 22 -13 30 -4 37 -38 9 -38 -12 0 -21 -6 -21
-15 0 -10 7 -14 23 -11 12 3 34 5 50 5 32 1 36 18 5 23 -34 5 -37 38 -4 38 14
0 26 5 26 10 0 6 -25 10 -55 10 -30 0 -55 -4 -55 -9z"/>
<path d="M1160 1046 c0 -18 23 -27 41 -15 12 8 12 10 -1 19 -22 14 -40 12 -40
-4z"/>
<path d="M720 1006 c0 -2 7 -7 16 -10 8 -3 12 -2 9 4 -6 10 -25 14 -25 6z"/>
<path d="M850 983 c5 -2 8 -9 4 -14 -3 -5 0 -9 6 -9 15 0 7 23 -8 26 -7 1 -8
0 -2 -3z"/>
<path d="M1627 973 c-12 -11 -8 -50 6 -60 18 -15 87 -26 87 -14 0 6 -12 13
-27 17 -48 10 -53 13 -53 30 0 14 8 16 45 12 44 -5 61 4 29 16 -21 8 -79 8
-87 -1z"/>
<path d="M540 941 c0 -5 7 -11 15 -15 23 -9 18 -35 -9 -42 -32 -8 -49 3 -43
27 3 10 1 21 -4 24 -11 7 -23 -40 -14 -55 12 -19 49 -28 73 -17 27 13 39 51
22 72 -14 16 -40 20 -40 6z"/>
<path d="M624 920 c4 -14 9 -33 11 -42 5 -23 26 -61 31 -56 4 5 -34 110 -43
118 -3 3 -3 -6 1 -20z"/>
<path d="M845 920 c-3 -5 -2 -10 4 -10 5 0 13 5 16 10 3 6 2 10 -4 10 -5 0
-13 -4 -16 -10z"/>
<path d="M799 883 c-13 -17 -13 -17 6 -3 11 8 22 16 24 17 2 2 0 3 -6 3 -6 0
-17 -8 -24 -17z"/>
<path d="M1600 875 c0 -2 12 -11 27 -19 l28 -14 -38 -7 c-21 -4 -36 -12 -34
-18 4 -14 97 -49 97 -37 0 6 -12 16 -27 22 l-28 11 38 9 c47 12 47 24 1 43
-36 15 -64 19 -64 10z"/>
<path d="M1372 850 c0 -14 2 -19 5 -12 2 6 2 18 0 25 -3 6 -5 1 -5 -13z"/>
<path d="M596 840 c10 -39 10 -42 -3 -47 -7 -3 -13 2 -13 11 0 16 -18 31 -26
23 -3 -3 -1 -14 5 -26 7 -13 8 -22 1 -26 -5 -3 -15 5 -22 19 -10 23 -28 36
-28 21 0 -14 31 -65 40 -65 5 0 25 8 45 17 40 19 44 40 14 74 l-20 24 7 -25z"/>
<path d="M820 831 c0 -6 4 -13 10 -16 6 -3 7 1 4 9 -7 18 -14 21 -14 7z"/>
<path d="M853 833 c9 -2 23 -2 30 0 6 3 -1 5 -18 5 -16 0 -22 -2 -12 -5z"/>
<path d="M670 801 c0 -6 5 -11 11 -11 5 0 7 -5 4 -10 -3 -6 1 -13 9 -16 9 -3
13 -11 9 -17 -4 -6 -1 -7 7 -2 10 6 10 11 -3 20 -9 7 -14 14 -12 17 3 3 -1 11
-10 18 -10 8 -15 9 -15 1z"/>
<path d="M859 797 c5 -5 19 -7 32 -5 20 3 19 5 -9 9 -20 3 -29 2 -23 -4z"/>
<path d="M828 763 c7 -3 16 -2 19 1 4 3 -2 6 -13 5 -11 0 -14 -3 -6 -6z"/>
<path d="M878 763 c7 -3 16 -2 19 1 4 3 -2 6 -13 5 -11 0 -14 -3 -6 -6z"/>
<path d="M1536 748 c-20 -29 -20 -38 1 -54 13 -9 22 -9 30 -2 17 14 16 31 -1
25 -20 -8 -28 4 -15 20 16 18 47 16 57 -4 12 -22 5 -43 -14 -43 -8 0 -14 -4
-14 -10 0 -21 37 -9 48 16 27 58 -55 105 -92 52z"/>
<path d="M628 725 c-22 -15 -39 -21 -43 -15 -3 6 -10 10 -16 10 -5 0 1 -16 13
-35 25 -38 43 -46 33 -15 -5 15 1 24 24 38 17 9 31 23 31 30 0 16 1 16 -42
-13z"/>
<path d="M1020 735 c-7 -8 -8 -15 -2 -15 5 0 15 7 22 15 7 8 8 15 2 15 -5 0
-15 -7 -22 -15z"/>
<path d="M1441 705 c-17 -19 -28 -35 -23 -35 5 0 22 16 39 35 17 19 28 35 24
35 -4 0 -22 -16 -40 -35z"/>
<path d="M760 688 c46 -42 98 -78 114 -78 5 0 -10 13 -35 29 -24 16 -57 43
-73 60 -17 17 -34 31 -40 31 -6 0 10 -19 34 -42z"/>
<path d="M828 693 c6 -2 18 -2 25 0 6 3 1 5 -13 5 -14 0 -19 -2 -12 -5z"/>
<path d="M878 693 c7 -3 16 -2 19 1 4 3 -2 6 -13 5 -11 0 -14 -3 -6 -6z"/>
<path d="M1139 673 c-13 -16 -12 -17 4 -4 9 7 17 15 17 17 0 8 -8 3 -21 -13z"/>
<path d="M1040 676 c0 -2 8 -10 18 -17 15 -13 16 -12 3 4 -13 16 -21 21 -21
13z"/>
<path d="M1370 645 c-14 -8 -20 -14 -14 -15 5 0 19 7 30 15 24 18 16 19 -16 0z"/>
<path d="M710 615 c-20 -24 -3 -55 31 -55 28 0 34 8 29 40 -4 30 -40 39 -60
15z"/>
<path d="M895 600 c7 -11 97 -41 103 -35 3 2 -1 7 -9 9 -69 24 -98 32 -94 26z"/>
<path d="M1434 588 c-7 -22 16 -48 42 -48 20 0 34 32 23 52 -14 26 -56 23 -65
-4z"/>
<path d="M1260 590 c-14 -4 -38 -11 -54 -15 -15 -3 -26 -8 -23 -11 5 -6 115
21 125 30 8 8 -18 6 -48 -4z"/>
<path d="M845 523 c-19 -48 -15 -58 27 -68 21 -6 30 -2 43 19 23 35 13 69 -24
82 -29 11 -30 11 -46 -33z m63 -9 c3 -24 -22 -49 -42 -41 -12 5 -13 11 -3 37
13 34 40 37 45 4z"/>
<path d="M1025 559 c4 -5 16 -9 27 -9 26 0 19 9 -11 15 -12 2 -19 0 -16 -6z"/>
<path d="M1150 560 c0 -5 5 -10 10 -10 6 0 10 5 10 10 0 6 -4 10 -10 10 -5 0
-10 -4 -10 -10z"/>
<path d="M1293 548 c-25 -12 -32 -31 -9 -22 9 3 19 -9 30 -36 9 -23 21 -38 26
-35 6 4 4 20 -6 43 -10 24 -11 38 -4 40 14 5 13 22 -2 21 -7 0 -23 -5 -35 -11z"/>
<path d="M1007 473 c-6 -54 2 -65 48 -61 28 3 30 6 32 46 2 37 -1 44 -23 52
-44 17 -51 13 -57 -37z m61 15 c-3 -7 -11 -13 -18 -13 -7 0 -15 6 -17 13 -3 7
4 12 17 12 13 0 20 -5 18 -12z m0 -45 c2 -8 -5 -13 -17 -13 -12 0 -21 6 -21
16 0 18 31 15 38 -3z"/>
<path d="M1181 483 c1 -46 13 -81 22 -66 9 15 -3 103 -14 103 -5 0 -9 -17 -8
-37z"/>
</g>
</svg>
